PathFileType  4	(X/Y/Z) C:\Users\antoi\Documents\MyRepositories\mobilecap\ResultsAnalysis
DataRate	CameraRate	NumFrames	NumMarkers	Units	OrigDataRate	OrigDataStartFrame	OrigNumFrames
100.0	100.0	4	51	mm	100.0	721	1441
Frame#	Time	r_knee			r_shank_antsup			r_ankle			r_calc			r_5meta			r_toe			L_knee			L_shank_antsup			L_ankle			L_calc			L_5meta			L_toe			r_sh2			r_sh3			r_sh4			L_sh2			L_sh3			r_thigh1			r_thigh2			r_thigh3			r_thigh4			r_thigh5			L_thigh1			L_thigh2			L_thigh3			L_thigh4			r.ASIS			r.PSIS			L.ASIS			L.PSIS			C7			R_Shoulder			L_Shoulder			R_Sternum			L_Sternum			R_humerus			R_elbow_med			R_elbow_lat			R_forearm			R_wrist_radius			R_wrist_ulna			L_humerus			L_elbow_med			L_elbow_lat			L_forearm			L_wrist_radius			L_wrist_ulna			R_HJC			L_HJC			R_HJC_reg			L_HJC_reg			
		X1	Y1	Z1	X2	Y2	Z2	X3	Y3	Z3	X4	Y4	Z4	X5	Y5	Z5	X6	Y6	Z6	X7	Y7	Z7	X8	Y8	Z8	X9	Y9	Z9	X10	Y10	Z10	X11	Y11	Z11	X12	Y12	Z12	X13	Y13	Z13	X14	Y14	Z14	X15	Y15	Z15	X16	Y16	Z16	X17	Y17	Z17	X18	Y18	Z18	X19	Y19	Z19	X20	Y20	Z20	X21	Y21	Z21	X22	Y22	Z22	X23	Y23	Z23	X24	Y24	Z24	X25	Y25	Z25	X26	Y26	Z26	X27	Y27	Z27	X28	Y28	Z28	X29	Y29	Z29	X30	Y30	Z30	X31	Y31	Z31	X32	Y32	Z32	X33	Y33	Z33	X34	Y34	Z34	X35	Y35	Z35	X36	Y36	Z36	X37	Y37	Z37	X38	Y38	Z38	X39	Y39	Z39	X40	Y40	Z40	X41	Y41	Z41	X42	Y42	Z42	X43	Y43	Z43	X44	Y44	Z44	X45	Y45	Z45	X46	Y46	Z46	X47	Y47	Z47	X48	Y48	Z48	X49	Y49	Z49	X50	Y50	Z50	X51	Y51	Z51	

721	7.20000000	-133.51982	506.93345	-389.50467	-95.01972	402.17987	-396.36742	-282.76508	119.90514	-422.90453	-368.24001	74.08102	-470.77518	-180.40921	48.16085	-367.05638	-117.76794	76.61462	-425.14587	-139.73559	509.66953	-843.79090	-136.54553	425.53591	-870.13571	-288.86130	122.42211	-835.33328	-376.57826	73.85479	-782.02475	-184.99733	50.56736	-870.05558	-125.31904	78.75257	-807.69067	-149.73380	304.41147	-376.55859	-148.40399	438.97020	-357.13138	-218.16100	346.23446	-354.99523	-220.03553	459.08044	-862.82756	-254.90605	341.65032	-863.44133	-306.33469	778.28330	-417.47223	-223.91923	710.36192	-407.85502	-243.81182	653.01563	-374.62115	-377.28213	690.63061	-416.68921	-285.45195	623.21333	-396.68167	-275.40428	766.12733	-819.00140	-169.93191	673.47109	-826.03134	-347.39070	686.62152	-844.66707	-247.72593	593.17689	-853.44049	-346.78220	905.44342	-496.89630	-526.57442	928.43831	-558.24912	-353.48526	903.99733	-739.16554	-534.23283	930.37801	-668.41905	-326.39023	1439.49773	-635.89179	-255.19740	1371.68137	-472.26572	-278.27156	1370.07691	-807.32397	-211.68985	1338.76114	-610.96841	-215.61658	1334.59278	-666.28723	-243.14326	1226.47842	-395.06008	-293.57100	1015.32904	-409.87045	-273.99504	1050.57514	-325.83856	-128.18748	1104.57526	-383.07606	-70.44568	1159.92354	-431.02887	-52.76896	1120.85354	-412.45200	-291.45103	1254.48735	-893.80213	-294.00478	1007.52140	-858.71603	-273.72994	1038.68633	-939.51665	-204.24449	1069.38250	-926.85037	-68.46432	1140.29048	-855.64602	-49.42331	1104.32495	-864.12288	-432.78754	793.66591	-511.30441	-442.95243	799.71299	-717.92689	-407.47506	826.80980	-527.91552	-418.56935	829.62138	-687.46527	
722	7.21000000	-135.50438	508.62732	-390.02052	-97.01094	403.83653	-396.64058	-282.82004	120.07119	-422.88269	-368.21909	74.14899	-470.89961	-180.37716	48.08965	-367.04374	-117.76502	76.56471	-425.09565	-142.44705	511.27893	-844.59460	-139.33756	426.84682	-871.21013	-289.06260	122.48764	-835.47672	-376.57724	73.86163	-781.99825	-185.04113	50.53150	-870.28159	-125.33412	78.75942	-807.86056	-151.23358	305.83656	-376.71980	-150.76456	440.38185	-357.84636	-220.45127	347.18022	-355.07104	-223.01846	459.72849	-863.89335	-256.93273	342.24867	-864.33068	-299.49457	785.65920	-417.45111	-219.43108	714.96119	-407.58858	-241.19404	658.17010	-374.57402	-373.29195	700.22739	-416.78998	-283.80067	629.70817	-397.09636	-269.92408	772.26897	-819.73324	-167.60533	676.18670	-827.08971	-344.53782	695.20836	-844.92667	-248.11017	598.50751	-853.67756	-340.41328	918.38328	-496.23748	-520.09650	940.05118	-557.96495	-346.99383	917.01856	-738.74891	-527.86460	942.18209	-668.16179	-328.90904	1454.38870	-634.72286	-257.09907	1387.95684	-471.20676	-281.07561	1386.03074	-806.50679	-213.05155	1355.29343	-610.20142	-216.99267	1351.09607	-665.81530	-244.63472	1242.03190	-394.25992	-295.59315	1030.93373	-409.80379	-276.33778	1066.08444	-325.59277	-130.40174	1119.77556	-382.56576	-72.59811	1175.08721	-430.60280	-55.04222	1135.88313	-412.20070	-294.29708	1270.11425	-892.99665	-296.63921	1023.20314	-858.19373	-276.47142	1054.29062	-938.97311	-206.93603	1085.14500	-926.59653	-71.14592	1156.09608	-855.11586	-52.07517	1120.20709	-863.78625	-425.60079	805.98983	-510.98204	-435.62785	812.11554	-717.60906	-400.31573	839.05710	-527.42913	-411.57335	842.14505	-687.12193	
723	7.22000000	-138.01765	510.44233	-390.63697	-99.46978	405.59111	-396.99153	-282.95415	120.25940	-422.84016	-368.26932	74.12917	-470.95245	-180.34459	48.07495	-367.02850	-117.78537	76.54144	-425.06329	-145.59851	513.07657	-845.31997	-142.44157	428.16224	-871.94053	-289.33568	122.60536	-835.59221	-376.61076	73.83846	-781.96524	-185.09076	50.49381	-870.49953	-125.40783	78.77526	-807.99792	-153.19725	307.52293	-376.66032	-153.66434	442.06821	-358.40005	-222.71168	348.60811	-355.55794	-226.60918	460.44066	-864.69259	-259.36832	342.81508	-864.95249	-293.11032	792.87843	-417.21461	-215.30699	719.56463	-407.39640	-238.93211	663.30193	-374.71759	-369.57988	709.91203	-416.76280	-282.45422	636.24048	-397.39497	-264.77769	778.35762	-820.23452	-165.60623	678.95015	-827.95699	-341.89806	703.91034	-845.44619	-248.87180	603.79329	-853.55647	-334.04625	931.14738	-495.79432	-513.85167	951.56073	-557.39963	-340.67190	929.89385	-738.41335	-521.54607	953.71856	-667.89993	-331.33064	1468.94506	-633.74833	-258.89821	1403.65155	-470.26075	-283.81733	1401.57089	-805.74340	-214.42017	1371.33167	-609.48459	-218.31759	1367.11387	-665.36575	-246.10924	1257.16274	-393.40080	-297.09408	1045.60963	-410.10707	-278.64734	1081.15184	-325.28925	-132.59310	1134.41154	-382.15880	-74.67154	1189.74998	-430.10205	-57.27796	1150.49875	-411.83359	-297.11108	1285.37546	-892.30270	-299.21322	1038.49801	-857.54351	-279.15561	1069.53801	-938.53513	-209.62790	1100.41519	-926.20760	-73.83395	1171.53427	-854.76693	-54.68185	1135.63928	-863.55696	-418.40499	818.15278	-510.66497	-428.48613	824.34657	-717.28723	-393.46954	851.37183	-527.11761	-404.59457	854.49135	-686.89114	
724	7.23000000	-141.01775	512.30931	-391.24582	-102.43051	407.47167	-397.38063	-283.17089	120.45114	-422.83679	-368.30977	74.07302	-470.89742	-180.34414	48.10020	-367.00853	-117.79984	76.54926	-425.08804	-149.03896	515.07089	-845.92425	-145.86116	429.68558	-872.58669	-289.68173	122.84096	-835.79629	-376.61946	73.85332	-781.99323	-185.11549	50.45393	-870.66010	-125.49170	78.85082	-808.20411	-155.59895	309.28708	-376.60610	-157.00865	443.83546	-358.90528	-224.95003	350.08427	-356.49481	-230.60662	461.30198	-865.33180	-262.06045	343.36167	-865.21056	-287.09661	799.97257	-416.94417	-211.55125	724.13940	-407.35674	-237.00537	668.43934	-374.94957	-366.05523	719.61080	-416.52646	-281.39831	642.71238	-397.61822	-259.81917	784.39301	-820.50054	-163.94730	681.72330	-828.60419	-339.46511	712.53205	-845.87283	-249.86877	609.11882	-853.60976	-327.69076	943.53829	-495.75462	-507.59348	962.82196	-556.95020	-334.43688	942.61300	-738.39368	-515.29783	964.97852	-667.59938	-333.67475	1483.11992	-632.93494	-260.55528	1418.65228	-469.42112	-286.47532	1416.58663	-804.98529	-215.75968	1386.87950	-608.90993	-219.59872	1382.55992	-664.72117	-247.53158	1271.76141	-392.53753	-299.51724	1059.88014	-409.94928	-280.92648	1095.43330	-324.96877	-134.75336	1148.45694	-381.95562	-76.67069	1203.81323	-429.67555	-59.36309	1164.51861	-411.51052	-299.86759	1300.22019	-891.62048	-301.74631	1053.23723	-856.86024	-281.79871	1084.25183	-937.91497	-212.33814	1115.15675	-925.57908	-76.46075	1186.42633	-854.39699	-57.22755	1150.55433	-863.38881	-411.14679	829.97707	-510.65235	-421.49027	836.39917	-717.25453	-386.65362	863.52316	-527.12466	-397.77932	866.63753	-686.91232	
